<?xml version="1.0" ?>
<!-- Uploaded to: SVG Repo, www.svgrepo.com, Generator: SVG Repo Mixer Tools -->
<svg width="800px" height="800px" viewBox="0 0 128 128" version="1.1" xml:space="preserve" xmlns="http://www.w3.org/2000/svg" xmlns:xlink="http://www.w3.org/1999/xlink">
<style type="text/css">
	.st0{fill:#1CA2BB;}
	.st1{fill:#EAC100;}
</style>
<g id="_x31_2_3D_Printing">
<g>
<polygon class="st0" points="112,112 112,116 16,116 16,112 32,96 96,96   "/>
<g>
<polygon class="st1" points="64,112 48,96 48,56 64,40 80,56 80,96    "/>
</g>
<path d="M100,94.3V44h-8v8H81.7L68,38.3V28H44v-4h36V8h-8v8H36v20h24v2.3L46.3,52H36v-8h-8v50.3l-16,16v9.7h104v-9.7L100,94.3z     M92,92h-8V60h8V92z M52,65.7l8,8v28.7l-8-8V65.7z M64,66.3L53.7,56L64,45.7L74.3,56L64,66.3z M68,73.7l8-8v28.7l-8,8V73.7z     M44,60v32h-8V60H44z M33.7,100h12.7l12,12H21.7L33.7,100z M69.7,112l12-12h12.7l12,12H69.7z"/>
</g>
</g>
<g id="_x31_1_VR_Gear"/>
<g id="_x31_0_Virtual_reality"/>
<g id="_x39__Augmented_reality"/>
<g id="_x38__Teleport"/>
<g id="_x37__Glassess"/>
<g id="_x36__Folding_phone"/>
<g id="_x35__Drone"/>
<g id="_x34__Retina_scan"/>
<g id="_x33__Smartwatch"/>
<g id="_x32__Bionic_Arm"/>
<g id="_x31__Chip"/>
</svg>