<?xml version="1.0" ?>
<!-- Uploaded to: SVG Repo, www.svgrepo.com, Generator: SVG Repo Mixer Tools -->
<svg width="800px" height="800px" viewBox="0 0 128 128" version="1.1" xml:space="preserve" xmlns="http://www.w3.org/2000/svg" xmlns:xlink="http://www.w3.org/1999/xlink">
<style type="text/css">
	.st0{fill:#1CA2BB;}
	.st1{fill:#EAC100;}
</style>
<g id="_x31_2_3D_Printing"/>
<g id="_x31_1_VR_Gear"/>
<g id="_x31_0_Virtual_reality"/>
<g id="_x39__Augmented_reality"/>
<g id="_x38__Teleport"/>
<g id="_x37__Glassess"/>
<g id="_x36__Folding_phone"/>
<g id="_x35__Drone"/>
<g id="_x34__Retina_scan"/>
<g id="_x33__Smartwatch"/>
<g id="_x32__Bionic_Arm">
<g>
<polyline class="st0" points="84,92 84,104 36,104 36,92   "/>
<polyline class="st1" points="76,104 76,116 44,116 44,104   "/>
<rect class="st1" height="20" width="12" x="32" y="28"/>
<rect class="st1" height="28" width="12" x="44" y="20"/>
<rect class="st1" height="28" width="12" x="68" y="20"/>
<rect class="st1" height="36" width="12" x="56" y="12"/>
<rect class="st1" height="16" width="12" x="92" y="36"/>
<polygon class="st0" points="88,92 32,92 32,64 80,64 88,72   "/>
<g>
<path d="M108,32H88v24h6v6.1l-5.7,4.6L81.7,60H78v-8h6V16H72V8H52v8H40v8H28v28h6v8h-6v36h4v12h8v12h40v-12h8V96h4V73.9l10-8V56     h6V32z M84,73.7V88H36V68h42.3L84,73.7z M54,52h4v8h-4V52z M66,60v-8h4v8H66z M76,24v20h-4V24H76z M64,16v28h-4V16H64z M52,24v20     h-4V24H52z M36,32h4v12h-4V32z M42,52h4v8h-4V52z M72,112H48v-4h24V112z M80,100H40v-4h40V100z M96,40h4v8h-4V40z"/>
<rect height="8" width="8" x="40" y="72"/>
</g>
</g>
</g>
<g id="_x31__Chip"/>
</svg>