<?xml version="1.0" ?>
<!-- Uploaded to: SVG Repo, www.svgrepo.com, Generator: SVG Repo Mixer Tools -->
<svg width="800px" height="800px" viewBox="0 0 128 128" version="1.1" xml:space="preserve" xmlns="http://www.w3.org/2000/svg" xmlns:xlink="http://www.w3.org/1999/xlink">
<style type="text/css">
	.st0{fill:#1CA2BB;}
	.st1{fill:#EAC100;}
</style>
<g id="_x31_2_3D_Printing"/>
<g id="_x31_1_VR_Gear"/>
<g id="_x31_0_Virtual_reality"/>
<g id="_x39__Augmented_reality"/>
<g id="_x38__Teleport"/>
<g id="_x37__Glassess"/>
<g id="_x36__Folding_phone"/>
<g id="_x35__Drone">
<g>
<path class="st0" d="M84,76H44V52c0-2.2,1.8-4,4-4h32c2.2,0,4,1.8,4,4V76z"/>
<path class="st1" d="M70,48H58c-3.3,0-6-2.7-6-6l0,0c0-3.3,2.7-6,6-6h12c3.3,0,6,2.7,6,6l0,0C76,45.3,73.3,48,70,48z"/>
<path class="st0" d="M20,64L20,64c-4.4,0-8-3.6-8-8v-8h16v8C28,60.4,24.4,64,20,64z"/>
<path class="st0" d="M108,64L108,64c4.4,0,8-3.6,8-8v-8h-16v8C100,60.4,103.6,64,108,64z"/>
<rect class="st1" height="16" width="24" x="52" y="92"/>
<path d="M120,32v-8H96v8h8v12h-8v8h-8c0-4.4-3.6-8-8-8h-0.2c0.1-0.6,0.2-1.3,0.2-2c0-5.5-4.5-10-10-10H58c-5.5,0-10,4.5-10,10    c0,0.7,0.1,1.4,0.2,2H48c-4.4,0-8,3.6-8,8h-8v-8h-8V32h8v-8H8v8h8v12H8v12c0,6.6,5.4,12,12,12c5.2,0,9.6-3.3,11.3-8H40v14.3l-8,8    V104h8V85.7l5.7-5.7H60v4h-4v4h-8v24h32V88h-8v-4h-4v-4h14.3l5.7,5.7V104h8V82.3l-8-8V60h8.7c1.7,4.7,6.1,8,11.3,8    c6.6,0,12-5.4,12-12V44h-8V32H120z M24,56c0,2.2-1.8,4-4,4s-4-1.8-4-4v-4h8V56z M72,104H56v-8h16V104z M56,42c0-1.1,0.9-2,2-2h12    c1.1,0,2,0.9,2,2s-0.9,2-2,2H58C56.9,44,56,43.1,56,42z M80,72H48V52h10h12h10V72z M112,56c0,2.2-1.8,4-4,4s-4-1.8-4-4v-4h8V56z"/>
</g>
</g>
<g id="_x34__Retina_scan"/>
<g id="_x33__Smartwatch"/>
<g id="_x32__Bionic_Arm"/>
<g id="_x31__Chip"/>
</svg>