<?xml version="1.0" ?>
<!-- Uploaded to: SVG Repo, www.svgrepo.com, Generator: SVG Repo Mixer Tools -->
<svg width="800px" height="800px" viewBox="0 0 128 128" version="1.1" xml:space="preserve" xmlns="http://www.w3.org/2000/svg" xmlns:xlink="http://www.w3.org/1999/xlink">
<style type="text/css">
	.st0{fill:#1CA2BB;}
	.st1{fill:#EAC100;}
</style>
<g id="_x31_2_3D_Printing"/>
<g id="_x31_1_VR_Gear"/>
<g id="_x31_0_Virtual_reality"/>
<g id="_x39__Augmented_reality"/>
<g id="_x38__Teleport"/>
<g id="_x37__Glassess"/>
<g id="_x36__Folding_phone"/>
<g id="_x35__Drone"/>
<g id="_x34__Retina_scan"/>
<g id="_x33__Smartwatch">
<g>
<path class="st0" d="M88,88v24c0,2.2-1.8,4-4,4H52c-2.2,0-4-1.8-4-4V88"/>
<path class="st0" d="M48,40V16c0-2.2,1.8-4,4-4h32c2.2,0,4,1.8,4,4v24"/>
<path class="st1" d="M36,64L36,64c0-17.7,14.3-32,32-32l0,0c17.7,0,32,14.3,32,32l0,0c0,17.7-14.3,32-32,32l0,0    C50.3,96,36,81.7,36,64z"/>
<g>
<path d="M40,8c-11,0-20,9-20,20h8c0-6.6,5.4-12,12-12V8z"/>
<path d="M40,28l0-8c-4.4,0-8,3.6-8,8H40z"/>
<path d="M108,56h-4.9c-1.7-7.4-5.6-13.9-11.1-18.8V16c0-4.4-3.6-8-8-8H52c-4.4,0-8,3.6-8,8v21.2C36.6,43.8,32,53.4,32,64     s4.6,20.2,12,26.8V112c0,4.4,3.6,8,8,8h32c4.4,0,8-3.6,8-8V90.8c5.5-4.9,9.4-11.4,11.1-18.8h4.9V56z M52,16h32v15.8     C79.2,29.4,73.7,28,68,28s-11.2,1.4-16,3.8V16z M84,112H52V96.2c4.8,2.4,10.3,3.8,16,3.8s11.2-1.4,16-3.8V112z M68,92     c-14.1,0-25.8-10.4-27.7-24H50c3.3,0,6-2.7,6-6v-4c0-1.1,0.9-2,2-2s2,0.9,2,2v16c0,5.5,4.5,10,10,10s10-4.5,10-10v-6h8v-8H78     c-3.3,0-6,2.7-6,6v8c0,1.1-0.9,2-2,2s-2-0.9-2-2V58c0-5.5-4.5-10-10-10s-10,4.5-10,10v2h-7.7C42.2,46.4,53.9,36,68,36     c15.4,0,28,12.6,28,28S83.4,92,68,92z"/>
</g>
</g>
</g>
<g id="_x32__Bionic_Arm"/>
<g id="_x31__Chip"/>
</svg>