<?xml version="1.0" ?>
<!-- Uploaded to: SVG Repo, www.svgrepo.com, Generator: SVG Repo Mixer Tools -->
<svg width="800px" height="800px" viewBox="0 0 128 128" version="1.1" xml:space="preserve" xmlns="http://www.w3.org/2000/svg" xmlns:xlink="http://www.w3.org/1999/xlink">
<style type="text/css">
	.st0{fill:#1CA2BB;}
	.st1{fill:#EAC100;}
</style>
<g id="_x31_2_3D_Printing"/>
<g id="_x31_1_VR_Gear"/>
<g id="_x31_0_Virtual_reality"/>
<g id="_x39__Augmented_reality"/>
<g id="_x38__Teleport">
<g>
<ellipse class="st1" cx="64" cy="88" rx="52" ry="20"/>
<g>
<rect height="8" width="8" x="92" y="28"/>
<rect height="8" width="8" x="28" y="16"/>
<rect height="8" width="8" x="44" y="40"/>
<path d="M112,40v35.2c-3.3-2.3-7.3-4.2-12-5.8V44h-8v23.1C83.3,65,73.6,64,64,64c-4,0-8,0.2-12,0.5V56h-8v9.5     c-2.7,0.4-5.4,1-8,1.6V32h-8v37.4c-4.7,1.6-8.7,3.5-12,5.8V56H8v32c0,15.6,28.9,24,56,24s56-8.4,56-24V40H112z M16,88     c0-5,10.3-11.5,28-14.4v28.9C26.3,99.5,16,93,16,88z M88,101.7V80h-8v23c-4.9,0.6-10.2,1-16,1c-4.2,0-8.2-0.2-12-0.5V72.5     c3.8-0.3,7.8-0.5,12-0.5c29.7,0,48,9.3,48,16C112,92.6,103.2,98.5,88,101.7z"/>
</g>
</g>
</g>
<g id="_x37__Glassess"/>
<g id="_x36__Folding_phone"/>
<g id="_x35__Drone"/>
<g id="_x34__Retina_scan"/>
<g id="_x33__Smartwatch"/>
<g id="_x32__Bionic_Arm"/>
<g id="_x31__Chip"/>
</svg>