<?xml version="1.0" ?>
<!-- Uploaded to: SVG Repo, www.svgrepo.com, Generator: SVG Repo Mixer Tools -->
<svg width="800px" height="800px" viewBox="0 0 128 128" version="1.1" xml:space="preserve" xmlns="http://www.w3.org/2000/svg" xmlns:xlink="http://www.w3.org/1999/xlink">
<style type="text/css">
	.st0{fill:#1CA2BB;}
	.st1{fill:#EAC100;}
</style>
<g id="_x31_2_3D_Printing"/>
<g id="_x31_1_VR_Gear">
<g>
<ellipse class="st1" cx="64" cy="48" rx="52" ry="20"/>
<path class="st0" d="M104,52v44c0,2.2-1.8,4-4,4H28c-2.2,0-4-1.8-4-4V52c0-2.2,1.8-4,4-4h72C102.2,48,104,49.8,104,52z"/>
<path class="st1" d="M96,63.8V88c12.2-3.7,20-9.4,20-15.8V48C116,54.4,108.2,60.1,96,63.8z"/>
<path class="st1" d="M12,48v24.2c0,6.4,7.8,12.1,20,15.8V63.8C19.8,60.1,12,54.4,12,48z"/>
<path class="st1" d="M80,80H48c-2.2,0-4-1.8-4-4v-4c0-2.2,1.8-4,4-4h32c2.2,0,4,1.8,4,4v4C84,78.2,82.2,80,80,80z"/>
<g>
<path d="M64,24C36.9,24,8,32.4,8,48v24.2c0,5.9,4.2,11.1,12,15.3V96c0,4.4,3.6,8,8,8h72c4.4,0,8-3.6,8-8v-8.5     c7.8-4.1,12-9.4,12-15.3V48C120,32.4,91.1,24,64,24z M16,72.2V60.8c3.1,2.2,7.2,4.2,12,5.8v15.7C20.6,79.4,16,75.6,16,72.2z      M100,96H28v-5.1c0.9,0.3,1.9,0.6,2.8,0.9l5.2,1.5V60.8l-2.8-0.9c-1.8-0.6-3.6-1.2-5.2-1.8V52h72v6.1c-1.6,0.6-3.3,1.2-5.2,1.8     L92,60.8v32.6l5.2-1.5c1-0.3,1.9-0.6,2.8-0.9V96z M112,72.2c0,3.4-4.6,7.2-12,10.1V66.7c4.8-1.7,8.9-3.6,12-5.8V72.2z M108,53.8     V52c0-4.4-3.6-8-8-8H28c-4.4,0-8,3.6-8,8v1.8c-2.6-1.9-4-3.9-4-5.8c0-6.7,18.3-16,48-16s48,9.3,48,16     C112,49.9,110.6,51.9,108,53.8z"/>
<path d="M80,64H48c-4.4,0-8,3.6-8,8v4c0,4.4,3.6,8,8,8h32c4.4,0,8-3.6,8-8v-4C88,67.6,84.4,64,80,64z M48,76v-4h32l0,4H48z"/>
</g>
</g>
</g>
<g id="_x31_0_Virtual_reality"/>
<g id="_x39__Augmented_reality"/>
<g id="_x38__Teleport"/>
<g id="_x37__Glassess"/>
<g id="_x36__Folding_phone"/>
<g id="_x35__Drone"/>
<g id="_x34__Retina_scan"/>
<g id="_x33__Smartwatch"/>
<g id="_x32__Bionic_Arm"/>
<g id="_x31__Chip"/>
</svg>