<?xml version="1.0" ?>
<!-- Uploaded to: SVG Repo, www.svgrepo.com, Generator: SVG Repo Mixer Tools -->
<svg width="800px" height="800px" viewBox="0 0 128 128" version="1.1" xml:space="preserve" xmlns="http://www.w3.org/2000/svg" xmlns:xlink="http://www.w3.org/1999/xlink">
<style type="text/css">
	.st0{fill:#1CA2BB;}
	.st1{fill:#EAC100;}
</style>
<g id="_x31_2_3D_Printing"/>
<g id="_x31_1_VR_Gear"/>
<g id="_x31_0_Virtual_reality">
<g>
<path class="st1" d="M116,88c0,11-23.3,20-52,20s-52-9-52-20V48c0-11,23.3-20,52-20s52,9,52,20V88z"/>
<path class="st1" d="M32,63.8v40c-12.2-3.7-20-9.4-20-15.8V48C12,54.4,19.8,60.1,32,63.8z"/>
<path class="st1" d="M96,63.8v40c12.2-3.7,20-9.4,20-15.8V48C116,54.4,108.2,60.1,96,63.8z"/>
<circle class="st0" cx="64" cy="64" r="12"/>
<path class="st0" d="M44,96c0-11,9-20,20-20c11,0,20,9,20,20"/>
<g>
<circle cx="44" cy="48" r="4"/>
<path d="M64,24C36.9,24,8,32.4,8,48v40c0,15.6,28.9,24,56,24s56-8.4,56-24V48C120,32.4,91.1,24,64,24z M64,32     c29.7,0,48,9.3,48,16c0,4.1-6.7,8.8-17.2,11.9L92,60.8V67c-3.7-0.9-7.7-1.6-12-2.1c0-0.3,0-0.6,0-0.9c0-8.8-7.2-16-16-16     s-16,7.2-16,16c0,0.3,0,0.6,0,0.9c-4.3,0.5-8.3,1.2-12,2.1v-6.2l-2.8-0.9C22.7,56.8,16,52.1,16,48C16,41.3,34.3,32,64,32z      M112,60.8v14.3c-3.2-2.3-7.2-4.2-12-5.9v-2.6C104.8,65,108.9,63.1,112,60.8z M56,64c0-4.4,3.6-8,8-8s8,3.6,8,8s-3.6,8-8,8     S56,68.4,56,64z M28,69.3c-4.8,1.6-8.8,3.6-12,5.9V60.8c3.1,2.2,7.2,4.2,12,5.8V69.3z M16,88c0-3.3,4.3-7.1,12-10.1v20.3     C20.3,95.1,16,91.2,16,88z M36,100.8V75.3c4.3-1.1,9.2-2,14.6-2.6c0.5,0.8,1.1,1.6,1.8,2.3C45,79.1,40,87,40,96h8     c0-8.8,7.2-16,16-16s16,7.2,16,16h8c0-9-5-16.9-12.4-21c0.7-0.7,1.3-1.5,1.8-2.3c5.4,0.6,10.3,1.5,14.6,2.6v25.5     c-7.5,2-17,3.2-28,3.2S43.5,102.7,36,100.8z M100,98.2V77.9c7.7,3.1,12,6.9,12,10.1C112,91.2,107.7,95.1,100,98.2z"/>
</g>
</g>
</g>
<g id="_x39__Augmented_reality"/>
<g id="_x38__Teleport"/>
<g id="_x37__Glassess"/>
<g id="_x36__Folding_phone"/>
<g id="_x35__Drone"/>
<g id="_x34__Retina_scan"/>
<g id="_x33__Smartwatch"/>
<g id="_x32__Bionic_Arm"/>
<g id="_x31__Chip"/>
</svg>